<svg xmlns="http://www.w3.org/2000/svg" width="161.754" height="24.059" viewBox="0 0 161.754 24.059">
  <g id="Group_106" data-name="Group 106" transform="translate(-622.758 -126.032)">
    <path id="Path_85" data-name="Path 85" d="M-158.383-27.363c0-4.784-1.283-6.067-8.667-6.691-5.2-.416-5.72-.936-5.72-3.085v-.485c0-2.392.728-2.947,4.368-2.947h.659c3.883,0,4.576.693,4.576,3.189v.728h4.195v-.936c0-4.923-1.283-6.379-8.909-6.379h-.9c-6.656,0-8.285,1.664-8.285,6.309v.555c0,4.611,1.248,6.136,8.563,6.691,5.165.416,5.789,1.005,5.789,3.363v.451c0,2.7-.693,3.224-4.611,3.224h-.659c-4.264,0-5.027-.555-5.027-3.4v-.832h-4.229V-26.5c0,5.477,1.179,6.587,9.637,6.587h.867c6.725,0,8.355-1.387,8.355-6.829Zm9.7,7.415c4.358,0,5.938-1.112,5.938-4.563v-.322h-3.217v.263c0,1.755-.468,2.165-2.779,2.165h-.38c-2.6,0-3.042-.468-3.042-3.51V-26.5h9.36V-28.43c0-4.768-1.316-5.967-6.055-5.967h-.556c-4.592,0-6.113,1.2-6.113,6.581v1.258c0,5.324,1.228,6.611,6.172,6.611Zm-3.51-8.629c.029-2.984.439-3.51,3.013-3.51h.263c2.457,0,2.9.585,2.9,3.071v.439Zm18.72,8.629c4.68,0,5.938-1.287,5.938-5v-.439h-3.218v.293c0,1.931-.468,2.486-2.574,2.486h-.468c-2.457,0-2.954-.585-2.954-3.949v-1.258c0-3.393.409-3.978,2.867-3.978h.468c2.106,0,2.633.556,2.633,2.428v.292h3.218V-29.6c0-3.539-1.2-4.8-5.821-4.8h-.585c-4.943,0-6.289,1.287-6.289,6.581v1.258c0,5.236,1.287,6.611,6.2,6.611Zm21.762-14.245h-3.51v8.1c0,2.808-.79,3.481-3.042,3.481h-.263c-2.4,0-2.749-.556-2.749-3.481v-8.1h-3.51v8.57c0,4.475,1.141,5.675,4.972,5.675h.234c2.545,0,3.744-.76,4.388-2.457h.029v2.252h3.451Zm6.9,6.23c0-2.867.76-3.6,2.4-3.6h.234c1.638,0,2.018.439,2.018,2.311v.819h2.984c.029-.731.029-1.316.029-1.609,0-3.276-.673-4.358-3.6-4.358h-.175c-2.34,0-3.364.848-3.92,2.75h-.088v-2.545h-3.393v14.04h3.51ZM-88.4-19.947c4.358,0,5.938-1.112,5.938-4.563v-.322h-3.218v.263c0,1.755-.468,2.165-2.779,2.165h-.38c-2.6,0-3.042-.468-3.042-3.51V-26.5h9.36V-28.43c0-4.768-1.316-5.967-6.055-5.967h-.556c-4.592,0-6.113,1.2-6.113,6.581v1.258c0,5.324,1.229,6.611,6.172,6.611Zm-3.51-8.629c.029-2.984.439-3.51,3.013-3.51h.263c2.457,0,2.9.585,2.9,3.071v.439Z" transform="translate(800 170)" fill="#005aa9"/>
    <path id="Path_86" data-name="Path 86" d="M20.022-21.339H19.91L14.614-39h-6.7L3.432-17.875H7.488L10.9-35.535h.141l5.239,17.661h6.732L27.486-39H23.43ZM36.246-32.831a15.424,15.424,0,0,0-3.774.38A5.2,5.2,0,0,0,30.106-31.2a6.114,6.114,0,0,0-1.437,2.338,26.729,26.729,0,0,0-.986,3.605,25.081,25.081,0,0,0-.535,3.591A3.957,3.957,0,0,0,27.6-19.34a3.031,3.031,0,0,0,1.831,1.253,13.384,13.384,0,0,0,3.605.38,15.424,15.424,0,0,0,3.774-.38,5.2,5.2,0,0,0,2.366-1.253,6.126,6.126,0,0,0,1.437-2.324,26.09,26.09,0,0,0,.986-3.591,25.048,25.048,0,0,0,.535-3.605,3.989,3.989,0,0,0-.451-2.338,3.031,3.031,0,0,0-1.831-1.253A13.384,13.384,0,0,0,36.246-32.831Zm-.591,2.7a6.439,6.439,0,0,1,1.817.2,1.324,1.324,0,0,1,.873.746,2.973,2.973,0,0,1,.127,1.507,24.562,24.562,0,0,1-.451,2.451q-.31,1.493-.592,2.422a3.966,3.966,0,0,1-.746,1.465,2.352,2.352,0,0,1-1.183.732,7.417,7.417,0,0,1-1.9.2,6.439,6.439,0,0,1-1.817-.2,1.33,1.33,0,0,1-.873-.732,2.815,2.815,0,0,1-.127-1.465q.113-.93.422-2.422.338-1.493.62-2.451a4.109,4.109,0,0,1,.746-1.507,2.313,2.313,0,0,1,1.183-.746A7.416,7.416,0,0,1,35.655-30.127Zm31.124-2.535H63.343L58.16-20.3h-.113l-.2-12.365H53.428L47.907-20.3h-.085l.141-12.365H44.471l.2,14.788h5.155l5.155-11.886h.084l.113,11.886h5.07Z" transform="translate(717.733 167.723)" fill="#f15a23"/>
  </g>
</svg>
